<?xml version="1.0" encoding="utf-8"?>
<!-- Generator: Adobe Illustrator 21.1.0, SVG Export Plug-In . SVG Version: 6.00 Build 0)  -->
<svg version="1.1" id="Capa_1" xmlns="http://www.w3.org/2000/svg" xmlns:xlink="http://www.w3.org/1999/xlink" x="0px" y="0px"
	 viewBox="0 0 385 385" style="enable-background:new 0 0 385 385;" xml:space="preserve">
<g>
	<g id="Check_Circle">
		<path class="st0" d="M192.5,0C86.2,0,0,86.2,0,192.5S86.2,385,192.5,385C298.8,385,385,298.8,385,192.5C385,86.2,298.8,0,192.5,0z
			 M192.5,360.9c-93,0-168.4-75.4-168.4-168.4S99.5,24.1,192.5,24.1s168.4,75.4,168.4,168.4S285.5,360.9,192.5,360.9z"/>
		<path class="st0" d="M280.3,125L156.5,247.7L105,197.2c-4.7-4.7-12.4-4.7-17.2,0c-4.8,4.7-4.8,12.3,0,17l60.1,58.9
			c4.9,4.3,12.3,4.8,17.2,0L297.5,142c4.7-4.7,4.7-12.3,0-17C292.7,120.3,285.1,120.3,280.3,125z"/>
	</g>
</g>
</svg>
