<svg version="1.1" id="Layer_1" xmlns="http://www.w3.org/2000/svg" xmlns:xlink="http://www.w3.org/1999/xlink" x="0px" y="0px"
	 viewBox="0 0 512 512" style="enable-background:new 0 0 512 512;" xml:space="preserve">
<style type="text/css">
	.st0{fill:#EF4367;}
</style>
<g>
	<path class="st0" d="M249,61.3c-5.4-1.2-10.7,2.1-12,7.5s2.1,10.7,7.5,12C269.3,86.4,292,99,310,117.1
		c53.2,53.2,53.2,139.7,0,192.9c-53.2,53.2-139.7,53.2-192.9,0c-53.2-53.2-53.2-139.7,0-192.9c15.3-15.3,33.3-26.4,53.7-33.1
		c5.2-1.7,8.1-7.4,6.4-12.6c-1.7-5.2-7.4-8.1-12.6-6.4c-23.4,7.7-44.1,20.5-61.6,38c-61,61-61,160.2,0,221.1
		c30.5,30.5,70.5,45.7,110.6,45.7c40,0,80.1-15.2,110.6-45.7c61-61,61-160.2,0-221.1C303.4,82.3,277.4,67.9,249,61.3z"/>
	<path class="st0" d="M498.4,432.7L393.9,328.2c53.6-84.1,41.9-194.5-29.3-265.6C324.3,22.2,270.6,0,213.6,0
		c-57.1,0-110.7,22.2-151,62.6C22.2,102.9,0,156.5,0,213.6c0,57.1,22.2,110.7,62.6,151c40.3,40.3,94,62.6,151,62.6
		c40.9,0,80.4-11.5,114.6-33.3l104.5,104.5c8.7,8.8,20.4,13.6,32.9,13.6c12.4,0,24.1-4.8,32.9-13.6
		C516.5,480.3,516.5,450.8,498.4,432.7z M484.3,484.3c-5,5-11.6,7.7-18.7,7.7c-7.1,0-13.8-2.7-18.8-7.7L336.5,374
		c-1.9-1.9-4.5-2.9-7.1-2.9c-2,0-4,0.6-5.7,1.8c-32.4,22.5-70.5,34.4-110.2,34.4c-51.7,0-100.3-20.1-136.9-56.7
		C1.2,275,1.2,152.2,76.7,76.7c36.6-36.6,85.2-56.7,136.9-56.7c51.7,0,100.3,20.1,136.9,56.7c66.3,66.3,75.7,170.2,22.3,247.1
		c-2.8,4-2.3,9.3,1.1,12.7l110.3,110.3C494.6,457.1,494.6,474,484.3,484.3z"/>
	<path class="st0" d="M273.8,153.4c-3.9-3.9-10.2-3.9-14.1,0l-46.1,46.1l-46.1-46.1c-3.9-3.9-10.2-3.9-14.1,0s-3.9,10.2,0,14.1
		l46.1,46.1l-46.1,46.1c-3.9,3.9-3.9,10.2,0,14.1c1.9,1.9,4.5,2.9,7.1,2.9c2.6,0,5.1-1,7.1-2.9l46.1-46.1l46.1,46.1
		c1.9,1.9,4.5,2.9,7.1,2.9c2.6,0,5.1-1,7.1-2.9c3.9-3.9,3.9-10.2,0-14.1l-46.1-46.1l46.1-46.1C277.7,163.6,277.7,157.3,273.8,153.4z
		"/>
	<path class="st0" d="M207,77.3c5.5,0,10-4.5,10-10c0-5.5-4.5-10-10-10c-5.5,0-10,4.5-10,10C197,72.8,201.5,77.3,207,77.3z"/>
</g>
</svg>
