<?xml version="1.0" encoding="utf-8"?>
<!-- Generator: Adobe Illustrator 21.1.0, SVG Export Plug-In . SVG Version: 6.00 Build 0)  -->
<svg version="1.1" id="Capa_1" xmlns="http://www.w3.org/2000/svg" xmlns:xlink="http://www.w3.org/1999/xlink" x="0px" y="0px"
	 viewBox="0 0 512 512" style="enable-background:new 0 0 512 512;" xml:space="preserve">
<style type="text/css">
	.st0{fill:#EF4367;}
</style>
<g>
	<g>
		<path class="st0" d="M296.6,364.4l-30-30c-5.9-5.9-15.4-5.9-21.2,0l-30,30c-9.4,9.4-2.7,25.6,10.6,25.6h60
			C299.3,390,306,373.8,296.6,364.4z"/>
	</g>
</g>
<g>
	<g>
		<path class="st0" d="M166,180c-41.4,0-75,33.6-75,75c0,41.4,33.6,75,75,75s75-33.6,75-75C241,213.6,207.4,180,166,180z M166,300.2
			c-24.8,0-45.2-20.4-45.2-45.2s20.4-45.2,45.2-45.2s45.2,20.4,45.2,45.2S190.8,300.2,166,300.2z"/>
	</g>
</g>
<g>
	<g>
		<path class="st0" d="M346,180c-41.4,0-75,33.6-75,75c0,41.4,33.6,75,75,75c41.4,0,75-33.6,75-75S387.4,180,346,180z M346,300.2
			c-24.8,0-45.2-20.4-45.2-45.2s20.4-45.2,45.2-45.2s45.2,20.4,45.2,45.2S370.8,300.2,346,300.2z"/>
	</g>
</g>
<g>
	<g>
		<path class="st0" d="M476.1,271c15.6-74.7-7-151.1-61-205.1v0C372.6,23.4,316.1,0,256,0S139.4,23.4,96.9,65.9
			C43,119.8,20.2,196.1,35.9,271c-6.1,17.9-6.5,37.1-1,55.7c9.4,31.6,35.6,55,68.5,61.3c3.8,1.1,4,0,11.5,1.2c2,0.3,4,0.6,6.1,0.8
			v58c0,18.2,10.7,34.4,27.3,41.4C173,499.7,211.7,512,256,512c0,0,0,0,0,0c0,0,0,0,0,0c44.3,0,83-12.3,107.7-22.7
			c16.6-6.9,27.3-23.2,27.3-41.4v-58.1c2.1-0.1,4-0.4,6-0.7c7.9-1.2,8.2-0.1,12.2-1.4c32.9-6.6,58.9-30.1,68-61.8
			C482.6,307.5,482.2,288.6,476.1,271z M448.5,317.6c-6.1,21.2-23.9,36.9-46.3,41c-12.3,0.4-10.6,2.8-23.2,0.3
			c-9.3-1.9-18,5.2-18,14.7V448c0,6.1-3.5,11.4-8.9,13.7c-5.5,2.3-12.9,4.9-21.3,7.6v-32.5c0-8.3-6.5-14.8-14.8-14.8s-15,6.7-15,15
			v40.3c-9.4,1.9-19.7,3.2-30.2,3.9v-44.5c0-8.3-6.5-14.8-14.8-14.8s-15,6.7-15,15v44.5c-10.5-0.8-20.8-2.4-30.2-4.3v-40.3
			c0-8.3-6.5-14.8-14.8-14.8s-15,6.7-15,15v32.5c-8.5-2.7-15.7-5.5-21.1-7.8c-5.4-2.3-9.1-7.8-9.1-13.9l0-74.5
			c0-9.5-8.5-16.4-17.8-14.5c-13.4,2.7-10.4,0-23.7-0.3c-22-4.1-39.4-19.5-45.7-40.4c-4-13.6-3.5-27.6,1.7-40.4c1.1-2.8,1.4-6,0.7-9
			c-15.5-67.4,5.2-134.8,52-181.6c36.8-36.8,85.8-57.3,137.9-57.3s101.1,20.5,137.9,57.3c47.7,47.7,67.2,115.6,52,181.6
			c-0.7,3-0.4,6.1,0.7,9C451.7,290.3,452.3,304.1,448.5,317.6z"/>
	</g>
</g>
</svg>
